<svg width="78" height="85" viewBox="0 0 78 85" fill="none" xmlns="http://www.w3.org/2000/svg">
<path fill-rule="evenodd" clip-rule="evenodd" d="M39.1867 10.8515C31.2804 10.8515 30.2907 10.8874 27.1856 11.0414C24.0864 11.1955 21.9691 11.7317 20.1177 12.5148C18.177 13.3084 16.4168 14.5538 14.9613 16.1664C13.481 17.7477 12.3353 19.6608 11.604 21.7726C10.8879 23.7863 10.393 26.0913 10.2513 29.4622C10.1116 32.8373 10.0767 33.9117 10.0767 42.5131C10.0767 51.1145 10.1097 52.1889 10.2513 55.5661C10.393 58.937 10.8859 61.2399 11.6059 63.2535C12.3356 65.3643 13.4806 67.2788 14.9633 68.8619C16.4171 70.4719 18.1761 71.718 20.1177 72.5135C21.9691 73.2945 24.0864 73.8306 27.1856 73.9847C30.2907 74.1388 31.2804 74.1747 39.1867 74.1747C47.093 74.1747 48.0827 74.1388 51.1878 73.9847C54.2871 73.8306 56.4043 73.2945 58.2557 72.5114C60.1964 71.7177 61.9566 70.4724 63.4121 68.8598C64.8924 67.2785 66.0381 65.3654 66.7694 63.2535C67.4875 61.2399 67.9804 58.937 68.1221 55.5661C68.2638 52.1889 68.2968 51.1124 68.2968 42.5131C68.2968 33.9138 68.2638 32.8373 68.1221 29.4601C67.9804 26.0891 67.4875 23.7863 66.7675 21.7726C66.0367 19.6599 64.8909 17.7459 63.4102 16.1643C61.9563 14.5542 60.1974 13.3081 58.2557 12.5126C56.4043 11.7338 54.2851 11.1955 51.1859 11.0414C48.0827 10.8895 47.0949 10.8515 39.1867 10.8515ZM39.1867 16.5569C46.9591 16.5569 47.8809 16.5886 50.9511 16.7405C53.7883 16.882 55.3292 17.3949 56.3558 17.8318C57.7143 18.4038 58.6846 19.0919 59.7035 20.198C60.7223 21.3061 61.353 22.3615 61.879 23.8391C62.2787 24.9557 62.7523 26.6316 62.8823 29.7176C63.022 33.0568 63.0511 34.0594 63.0511 42.5131C63.0511 50.9667 63.022 51.9693 62.8823 55.3086C62.7523 58.3945 62.2807 60.0705 61.879 61.1871C61.4131 62.5624 60.6697 63.8065 59.7035 64.8282C58.7643 65.8793 57.6204 66.6879 56.3558 67.1944C55.3292 67.6292 53.7883 68.1442 50.9511 68.2856C47.8809 68.4376 46.961 68.4693 39.1867 68.4693C31.4124 68.4693 30.4925 68.4376 27.4224 68.2856C24.5851 68.1442 23.0442 67.6313 22.0176 67.1944C20.7532 66.6876 19.6092 65.8791 18.6699 64.8282C17.7038 63.8065 16.9605 62.5623 16.4945 61.1871C16.0947 60.0705 15.6212 58.3945 15.4911 55.3086C15.3514 51.9693 15.3223 50.9667 15.3223 42.5131C15.3223 34.0594 15.3514 33.0568 15.4911 29.7176C15.6212 26.6316 16.0927 24.9557 16.4945 23.8391C17.0204 22.3615 17.653 21.3061 18.6699 20.198C19.6091 19.1469 20.7531 18.3383 22.0176 17.8318C23.0442 17.397 24.5851 16.882 27.4224 16.7405C30.4925 16.5886 31.4143 16.5569 39.1867 16.5569V16.5569Z" fill="white"/>
<path fill-rule="evenodd" clip-rule="evenodd" d="M39.1867 53.0775C37.9111 53.0775 36.6481 52.8042 35.4697 52.2733C34.2912 51.7424 33.2205 50.9643 32.3185 49.9833C31.4166 49.0023 30.7011 47.8376 30.213 46.5559C29.7249 45.2742 29.4736 43.9004 29.4736 42.5131C29.4736 41.1257 29.7249 39.752 30.213 38.4702C30.7011 37.1885 31.4166 36.0239 32.3185 35.0429C33.2205 34.0619 34.2912 33.2837 35.4697 32.7528C36.6481 32.2219 37.9111 31.9487 39.1867 31.9487C41.7627 31.9487 44.2333 33.0617 46.0548 35.0429C47.8764 37.0241 48.8997 39.7112 48.8997 42.5131C48.8997 45.3149 47.8764 48.002 46.0548 49.9833C44.2333 51.9645 41.7627 53.0775 39.1867 53.0775V53.0775ZM39.1867 26.239C35.2184 26.239 31.4126 27.9536 28.6066 31.0056C25.8005 34.0576 24.2241 38.1969 24.2241 42.5131C24.2241 46.8292 25.8005 50.9686 28.6066 54.0206C31.4126 57.0726 35.2184 58.7871 39.1867 58.7871C43.155 58.7871 46.9608 57.0726 49.7668 54.0206C52.5728 50.9686 54.1492 46.8292 54.1492 42.5131C54.1492 38.1969 52.5728 34.0576 49.7668 31.0056C46.9608 27.9536 43.155 26.239 39.1867 26.239V26.239ZM58.5022 25.9435C58.5022 26.9638 58.1295 27.9422 57.4662 28.6637C56.8029 29.3851 55.9033 29.7904 54.9653 29.7904C54.0273 29.7904 53.1276 29.3851 52.4644 28.6637C51.8011 27.9422 51.4284 26.9638 51.4284 25.9435C51.4284 24.9232 51.8011 23.9448 52.4644 23.2233C53.1276 22.5019 54.0273 22.0966 54.9653 22.0966C55.9033 22.0966 56.8029 22.5019 57.4662 23.2233C58.1295 23.9448 58.5022 24.9232 58.5022 25.9435" fill="white"/>
</svg>
