<svg width="155" height="54" viewBox="0 0 155 54" fill="none" xmlns="http://www.w3.org/2000/svg">
<path d="M90.5043 4.61661C86.2206 2.14352 81.5228 0.906982 76.4108 0.906982C71.2988 0.906982 66.5892 2.15519 62.2819 4.65161C57.9745 7.14802 54.6257 10.496 52.2354 14.6956C49.8451 18.9418 48.6499 23.5147 48.6499 28.4142C48.6499 33.4304 49.8687 38.0616 52.3064 42.3078C52.3697 42.4176 52.4335 42.5267 52.498 42.6352L66.3182 38.3754L67.4742 23.5426C67.4506 23.4491 67.442 23.3493 67.4516 23.2456L68.0591 16.6479C68.1281 15.899 69.0451 15.6002 69.5447 16.1639L72.6392 19.6546L74.1475 17.056C74.5225 16.4099 75.4828 16.5316 75.7033 17.2533L76.9358 21.2879C78.964 21.3386 80.8408 22.5175 81.7861 24.3625L89.3191 25.2168C90.0241 25.2967 90.5379 25.9391 90.4668 26.6515L90.4238 27.0815C89.8964 32.3601 85.3731 36.2087 80.1913 35.9081L80.4156 50.9591L91.1043 51.9959C95.1018 49.5598 98.2506 46.3188 100.551 42.2728C102.988 38.0266 104.207 33.4071 104.207 28.4142C104.207 23.3981 102.988 18.8019 100.551 14.6256C98.1368 10.426 94.7879 7.0897 90.5043 4.61661ZM43.0889 42.1154C42.0318 43.8864 40.7444 45.4391 39.2267 46.7737L39.1571 46.7861L39.1122 46.7939C37.8654 47.0096 36.3322 47.1241 34.7233 46.999C31.4824 46.747 28.1792 45.5548 26.0633 42.5624C25.4876 41.7483 24.3739 41.5532 23.5756 42.1265C22.7773 42.6999 22.5968 43.8246 23.1724 44.6387C25.8142 48.3748 29.6839 49.9448 33.2163 50.4535C29.7838 51.8722 25.9361 52.5815 21.6733 52.5815H0.113678V8.94412H22.1057C26.7942 8.94412 30.9736 9.85919 34.6437 11.6893C38.3139 13.5195 41.1577 16.1789 43.1754 19.6676C45.193 23.1372 46.2018 26.8642 46.2018 30.8486C46.2018 34.9092 45.1642 38.6648 43.0889 42.1154ZM25.2186 26.9595C24.2386 26.0826 22.7302 25.6441 20.6934 25.6441H19.5693V35.8815H20.0881C22.4324 35.8815 24.1233 35.4811 25.1609 34.6804C26.1986 33.8607 26.7174 32.5262 26.7174 30.677C26.7174 29.0566 26.2178 27.8174 25.2186 26.9595ZM144.026 9.85919C140.163 8.79161 136.416 8.25781 132.785 8.25781C127.827 8.25781 123.513 9.19195 119.843 11.0602C116.154 12.9285 113.319 15.5974 111.34 19.0671C109.342 22.5748 108.343 26.4258 108.343 30.6198C108.343 35.3286 109.553 39.5227 111.974 43.202C114.434 46.9004 117.624 49.5027 121.544 51.0087C125.521 52.5338 130.661 53.2964 136.964 53.2964C137.579 53.2964 138.424 53.2773 139.5 53.2392C140.576 53.2201 141.893 53.1725 143.449 53.0962L153.047 52.6387V29.1042H133.563V35.9387C131.142 35.9387 129.364 35.5193 128.231 34.6804C127.097 33.8226 126.53 32.469 126.53 30.6198C126.53 28.7325 127.203 27.236 128.548 26.1303C129.893 24.9864 131.67 24.4145 133.88 24.4145C137.185 24.4145 140.797 25.3486 144.717 27.2169L154.114 14.0914C152.673 13.2144 151.106 12.4233 149.416 11.7179C147.744 11.0126 145.947 10.393 144.026 9.85919Z" fill="#AD1717"/>
<path d="M90.5043 4.61661C86.2206 2.14352 81.5228 0.906982 76.4108 0.906982C71.2988 0.906982 66.5892 2.15519 62.2819 4.65161C57.9745 7.14802 54.6257 10.496 52.2354 14.6956C49.8451 18.9418 48.6499 23.5147 48.6499 28.4142C48.6499 33.4304 49.8687 38.0616 52.3064 42.3078C52.3697 42.4176 52.4335 42.5267 52.498 42.6352L66.3182 38.3754L67.4742 23.5426C67.4506 23.4491 67.442 23.3493 67.4516 23.2456L68.0591 16.6479C68.1281 15.899 69.0451 15.6002 69.5447 16.1639L72.6392 19.6546L74.1475 17.056C74.5225 16.4099 75.4828 16.5316 75.7033 17.2533L76.9358 21.2879C78.964 21.3386 80.8408 22.5175 81.7861 24.3625L89.3191 25.2168C90.0241 25.2967 90.5379 25.9391 90.4668 26.6515L90.4238 27.0815C89.8964 32.3601 85.3731 36.2087 80.1913 35.9081L80.4156 50.9591L91.1043 51.9959C95.1018 49.5598 98.2506 46.3188 100.551 42.2728C102.988 38.0266 104.207 33.4071 104.207 28.4142C104.207 23.3981 102.988 18.8019 100.551 14.6256C98.1368 10.426 94.7879 7.0897 90.5043 4.61661ZM43.0889 42.1154C42.0318 43.8864 40.7444 45.4391 39.2267 46.7737L39.1571 46.7861L39.1122 46.7939C37.8654 47.0096 36.3322 47.1241 34.7233 46.999C31.4824 46.747 28.1792 45.5548 26.0633 42.5624C25.4876 41.7483 24.3739 41.5532 23.5756 42.1265C22.7773 42.6999 22.5968 43.8246 23.1724 44.6387C25.8142 48.3748 29.6839 49.9448 33.2163 50.4535C29.7838 51.8722 25.9361 52.5815 21.6733 52.5815H0.113678V8.94412H22.1057C26.7942 8.94412 30.9736 9.85919 34.6437 11.6893C38.3139 13.5195 41.1577 16.1789 43.1754 19.6676C45.193 23.1372 46.2018 26.8642 46.2018 30.8486C46.2018 34.9092 45.1642 38.6648 43.0889 42.1154ZM25.2186 26.9595C24.2386 26.0826 22.7302 25.6441 20.6934 25.6441H19.5693V35.8815H20.0881C22.4324 35.8815 24.1233 35.4811 25.1609 34.6804C26.1986 33.8607 26.7174 32.5262 26.7174 30.677C26.7174 29.0566 26.2178 27.8174 25.2186 26.9595ZM144.026 9.85919C140.163 8.79161 136.416 8.25781 132.785 8.25781C127.827 8.25781 123.513 9.19195 119.843 11.0602C116.154 12.9285 113.319 15.5974 111.34 19.0671C109.342 22.5748 108.343 26.4258 108.343 30.6198C108.343 35.3286 109.553 39.5227 111.974 43.202C114.434 46.9004 117.624 49.5027 121.544 51.0087C125.521 52.5338 130.661 53.2964 136.964 53.2964C137.579 53.2964 138.424 53.2773 139.5 53.2392C140.576 53.2201 141.893 53.1725 143.449 53.0962L153.047 52.6387V29.1042H133.563V35.9387C131.142 35.9387 129.364 35.5193 128.231 34.6804C127.097 33.8226 126.53 32.469 126.53 30.6198C126.53 28.7325 127.203 27.236 128.548 26.1303C129.893 24.9864 131.67 24.4145 133.88 24.4145C137.185 24.4145 140.797 25.3486 144.717 27.2169L154.114 14.0914C152.673 13.2144 151.106 12.4233 149.416 11.7179C147.744 11.0126 145.947 10.393 144.026 9.85919Z" stroke="black"/>
</svg>
