<svg width="79" height="85" viewBox="0 0 79 85" fill="none" xmlns="http://www.w3.org/2000/svg">
<path d="M39.3411 11.8728C23.196 11.8728 10.0568 25.4955 10.0511 42.2373C10.0473 47.5912 11.3985 52.8164 13.9603 57.4185L9.80444 73.1533L25.3328 68.9311C29.6522 71.3633 34.455 72.6319 39.3297 72.6284H39.3411C55.4861 72.6284 68.6253 59.0037 68.631 42.2618C68.6348 34.1524 65.591 26.5188 60.0594 20.7809C54.5297 15.041 47.1764 11.8748 39.3411 11.8728ZM39.3411 67.4992H39.3316C34.9632 67.4992 30.6784 66.2817 26.94 63.9817L26.0482 63.4342L16.8371 65.9386L19.2964 56.6239L18.7176 55.67C16.2866 51.6789 14.9924 47.0098 14.9945 42.2373C15.0002 28.3205 25.9229 17.002 39.3506 17.002C45.8518 17.004 51.9641 19.633 56.5621 24.4026C61.16 29.1723 63.6896 35.5148 63.6858 42.2598C63.6801 56.1766 52.7592 67.4992 39.3392 67.4992H39.3411ZM52.6947 48.5941C51.9622 48.2162 48.3643 46.3799 47.6925 46.1245C47.0227 45.8733 46.535 45.7425 46.0473 46.5024C45.5615 47.2623 44.1572 48.972 43.7322 49.4766C43.3033 49.9832 42.8764 50.0444 42.1439 49.6665C41.4114 49.2866 39.0526 48.4859 36.2593 45.8998C34.0827 43.8898 32.614 41.4059 32.187 40.644C31.76 39.8862 32.1415 39.4756 32.5077 39.0977C32.836 38.7607 33.2402 38.2132 33.6045 37.77C33.9689 37.3267 34.0903 37.0101 34.337 36.5035C34.5799 35.9989 34.4585 35.5536 34.2744 35.1757C34.0903 34.7938 32.6291 31.0597 32.0162 29.542C31.4242 28.0631 30.8207 28.2613 30.371 28.2367C29.944 28.2163 29.4582 28.2102 28.9667 28.2102C28.4828 28.2102 27.6877 28.4002 27.016 29.16C26.3461 29.9199 24.4542 31.7542 24.4542 35.4883C24.4542 39.2243 27.0767 42.8317 27.4429 43.3383C27.8092 43.8429 32.6045 51.509 39.9464 54.7978C41.6922 55.576 43.0547 56.0438 44.1193 56.3951C45.8727 56.9732 47.4686 56.8895 48.7286 56.6954C50.1329 56.4769 53.059 54.8611 53.6663 53.0901C54.2773 51.3191 54.2773 49.7993 54.0951 49.4827C53.9168 49.1661 53.4272 48.9761 52.6947 48.5941Z" fill="white"/>
</svg>
